# This file uses centimeters as units for non-parametric coordinates.

mtllib fountain.mtl
g default
v 0.753745 0.018345 -0.547628
v 0.287905 0.018345 -0.886081
v -0.287905 0.018345 -0.886081
v -0.753746 0.018345 -0.547628
v -0.931681 0.018345 0.000000
v -0.753745 0.018345 0.547628
v -0.287905 0.018345 0.886081
v 0.287905 0.018345 0.886081
v 0.753745 0.018345 0.547628
v 0.931681 0.018345 0.000000
v 0.753745 0.202841 -0.547628
v 0.287905 0.202841 -0.886081
v -0.287905 0.202841 -0.886081
v -0.753746 0.202841 -0.547628
v -0.931681 0.202841 0.000000
v -0.753745 0.202841 0.547628
v -0.287905 0.202841 0.886081
v 0.287905 0.202841 0.886081
v 0.753745 0.202841 0.547628
v 0.931681 0.202841 0.000000
v 0.000000 0.018345 0.000000
v 0.647283 0.151377 -0.470278
v 0.247240 0.151377 -0.760926
v -0.247240 0.151377 -0.760926
v -0.647283 0.151377 -0.470278
v -0.800085 0.151377 0.000000
v -0.647283 0.151377 0.470278
v -0.247240 0.151377 0.760926
v 0.247240 0.151377 0.760926
v 0.647282 0.151377 0.470278
v 0.800085 0.151377 -0.000000
v 0.202992 0.152728 -0.147482
v 0.077536 0.152728 -0.238632
v -0.077536 0.152728 -0.238632
v -0.202992 0.152728 -0.147482
v -0.250912 0.152728 -0.000000
v -0.202992 0.152728 0.147482
v -0.077536 0.152728 0.238632
v 0.077536 0.152728 0.238632
v 0.202992 0.152728 0.147482
v 0.250912 0.152728 -0.000000
v 0.594524 1.264962 -0.431947
v 0.227087 1.264962 -0.698905
v -0.227087 1.264962 -0.698905
v -0.594524 1.264962 -0.431947
v -0.734871 1.264962 -0.000000
v -0.594524 1.264962 0.431946
v -0.227087 1.264962 0.698905
v 0.227087 1.264962 0.698905
v 0.594524 1.264962 0.431946
v 0.734871 1.264962 -0.000000
v 0.143415 0.388227 -0.000000
v 0.116025 0.388227 0.084297
v 0.044318 0.388227 0.136396
v -0.044318 0.388227 0.136396
v -0.116026 0.388227 0.084297
v -0.143415 0.388227 -0.000000
v -0.116026 0.388227 -0.084297
v -0.044318 0.388227 -0.136396
v 0.044318 0.388227 -0.136396
v 0.116025 0.388227 -0.084297
v 0.136341 0.557253 -0.000000
v 0.110302 0.557253 0.080139
v 0.042132 0.557253 0.129668
v -0.042132 0.557253 0.129668
v -0.110302 0.557253 0.080139
v -0.136341 0.557253 -0.000000
v -0.110302 0.557253 -0.080139
v -0.042132 0.557253 -0.129668
v 0.042132 0.557253 -0.129668
v 0.110302 0.557253 -0.080139
v 0.250912 0.862531 -0.000000
v 0.202992 0.862531 0.147482
v 0.077536 0.862531 0.238632
v -0.077536 0.862531 0.238632
v -0.202992 0.862531 0.147482
v -0.250912 0.862531 -0.000000
v -0.202992 0.862531 -0.147482
v -0.077536 0.862531 -0.238632
v 0.077536 0.862531 -0.238632
v 0.202992 0.862531 -0.147482
v 0.209842 0.462120 -0.000000
v 0.169766 0.462120 0.123342
v 0.064845 0.462120 0.199572
v -0.064845 0.462120 0.199572
v -0.169766 0.462120 0.123342
v -0.209842 0.462120 -0.000000
v -0.169766 0.462120 -0.123342
v -0.064845 0.462120 -0.199572
v 0.064845 0.462120 -0.199572
v 0.169766 0.462120 -0.123342
v 0.465393 1.087834 -0.000000
v 0.376511 1.087834 0.273551
v 0.143814 1.087834 0.442616
v -0.143814 1.087834 0.442616
v -0.376511 1.087834 0.273551
v -0.465393 1.087834 -0.000000
v -0.376511 1.087834 -0.273551
v -0.143814 1.087834 -0.442616
v 0.143814 1.087834 -0.442616
v 0.376511 1.087834 -0.273551
v 0.513615 1.266312 -0.373163
v 0.196183 1.266312 -0.603792
v -0.196183 1.266312 -0.603792
v -0.513615 1.266312 -0.373163
v -0.634863 1.266312 -0.000000
v -0.513615 1.266312 0.373163
v -0.196183 1.266312 0.603791
v 0.196183 1.266312 0.603791
v 0.513615 1.266312 0.373163
v 0.634863 1.266312 -0.000000
v 0.482933 1.207829 -0.350871
v 0.184463 1.207829 -0.567722
v -0.000000 1.207829 -0.000000
v -0.184464 1.207829 -0.567722
v -0.482933 1.207829 -0.350871
v -0.596937 1.207829 -0.000000
v -0.482933 1.207829 0.350871
v -0.184464 1.207829 0.567722
v 0.184463 1.207829 0.567722
v 0.482933 1.207829 0.350871
v 0.596937 1.207829 -0.000000
vt 0.626409 0.064409
vt 0.548284 0.007647
vt 0.451716 0.007647
vt 0.373591 0.064409
vt 0.343750 0.156250
vt 0.373591 0.248091
vt 0.451716 0.304853
vt 0.548284 0.304853
vt 0.626409 0.248091
vt 0.656250 0.156250
vt 0.375000 0.312500
vt 0.400000 0.312500
vt 0.425000 0.312500
vt 0.450000 0.312500
vt 0.475000 0.312500
vt 0.500000 0.312500
vt 0.525000 0.312500
vt 0.550000 0.312500
vt 0.575000 0.312500
vt 0.600000 0.312500
vt 0.625000 0.312500
vt 0.375000 0.688440
vt 0.400000 0.688440
vt 0.425000 0.688440
vt 0.450000 0.688440
vt 0.475000 0.688440
vt 0.500000 0.688440
vt 0.525000 0.688440
vt 0.550000 0.688440
vt 0.575000 0.688440
vt 0.600000 0.688440
vt 0.625000 0.688440
vt 0.626409 0.751909
vt 0.548284 0.695147
vt 0.451716 0.695147
vt 0.373591 0.751909
vt 0.343750 0.843750
vt 0.373591 0.935591
vt 0.451716 0.992353
vt 0.548284 0.992353
vt 0.626409 0.935591
vt 0.656250 0.843750
vt 0.500000 0.150000
vt 0.500000 0.837500
vt 0.626409 0.935591
vt 0.548284 0.992353
vt 0.451716 0.992353
vt 0.373591 0.935591
vt 0.343750 0.843750
vt 0.373591 0.751909
vt 0.451716 0.695147
vt 0.548284 0.695147
vt 0.626409 0.751909
vt 0.656250 0.843750
vt 0.626409 0.935591
vt 0.548284 0.992353
vt 0.451716 0.992353
vt 0.373591 0.935591
vt 0.343750 0.843750
vt 0.373591 0.751909
vt 0.451716 0.695147
vt 0.548284 0.695147
vt 0.626409 0.751909
vt 0.656250 0.843750
vt 0.626409 0.935591
vt 0.548284 0.992353
vt 0.451716 0.992353
vt 0.373591 0.935591
vt 0.343750 0.843750
vt 0.373591 0.751909
vt 0.451716 0.695147
vt 0.548284 0.695147
vt 0.626409 0.751909
vt 0.656250 0.843750
vt 0.656250 0.843750
vt 0.626409 0.751909
vt 0.548284 0.695147
vt 0.451716 0.695147
vt 0.373591 0.751909
vt 0.343750 0.843750
vt 0.373591 0.935591
vt 0.451716 0.992353
vt 0.548284 0.992353
vt 0.626409 0.935591
vt 0.656250 0.843750
vt 0.626409 0.751909
vt 0.548284 0.695147
vt 0.451716 0.695147
vt 0.373591 0.751909
vt 0.343750 0.843750
vt 0.373591 0.935591
vt 0.451716 0.992353
vt 0.548284 0.992353
vt 0.626409 0.935591
vt 0.656250 0.843750
vt 0.626409 0.751909
vt 0.548284 0.695147
vt 0.451716 0.695147
vt 0.373591 0.751909
vt 0.343750 0.843750
vt 0.373591 0.935591
vt 0.451716 0.992353
vt 0.548284 0.992353
vt 0.626409 0.935591
vt 0.656250 0.843750
vt 0.626409 0.751909
vt 0.548284 0.695147
vt 0.451716 0.695147
vt 0.373591 0.751909
vt 0.343750 0.843750
vt 0.373591 0.935591
vt 0.451716 0.992353
vt 0.548284 0.992353
vt 0.626409 0.935591
vt 0.656250 0.843750
vt 0.626409 0.751909
vt 0.548284 0.695147
vt 0.451716 0.695147
vt 0.373591 0.751909
vt 0.343750 0.843750
vt 0.373591 0.935591
vt 0.451716 0.992353
vt 0.548284 0.992353
vt 0.626409 0.935591
vt 0.626409 0.935591
vt 0.548284 0.992353
vt 0.451716 0.992353
vt 0.373591 0.935591
vt 0.343750 0.843750
vt 0.373591 0.751909
vt 0.451716 0.695147
vt 0.548284 0.695147
vt 0.626409 0.751909
vt 0.656250 0.843750
vt 0.626409 0.935591
vt 0.548284 0.992353
vt 0.451716 0.992353
vt 0.373591 0.935591
vt 0.343750 0.843750
vt 0.373591 0.751909
vt 0.451716 0.695147
vt 0.548284 0.695147
vt 0.626409 0.751909
vt 0.656250 0.843750
vn 0.587785 0.000000 -0.809017
vn 0.587785 0.000000 -0.809017
vn 0.490283 0.551584 -0.674817
vn 0.490283 0.551584 -0.674817
vn -0.000000 0.000000 -1.000000
vn -0.000000 0.000000 -1.000000
vn -0.000000 0.551584 -0.834119
vn -0.000000 0.551584 -0.834119
vn -0.587785 0.000000 -0.809017
vn -0.587785 0.000000 -0.809017
vn -0.490283 0.551584 -0.674817
vn -0.490283 0.551584 -0.674817
vn -0.951057 0.000000 -0.309017
vn -0.951057 0.000000 -0.309017
vn -0.793295 0.551584 -0.257757
vn -0.793295 0.551584 -0.257757
vn -0.951057 0.000000 0.309017
vn -0.951057 0.000000 0.309017
vn -0.793294 0.551584 0.257757
vn -0.793294 0.551584 0.257757
vn -0.587785 0.000000 0.809017
vn -0.587785 0.000000 0.809017
vn -0.490283 0.551584 0.674817
vn -0.490283 0.551584 0.674817
vn 0.000000 0.000000 1.000000
vn 0.000000 0.000000 1.000000
vn 0.000000 0.551584 0.834119
vn 0.000000 0.551584 0.834119
vn 0.587785 0.000000 0.809017
vn 0.587785 0.000000 0.809017
vn 0.490283 0.551584 0.674817
vn 0.490283 0.551584 0.674817
vn 0.951057 0.000000 0.309017
vn 0.951057 0.000000 0.309017
vn 0.793294 0.551584 0.257757
vn 0.793294 0.551584 0.257757
vn 0.951057 0.000000 -0.309017
vn 0.951057 0.000000 -0.309017
vn 0.793295 0.551584 -0.257757
vn 0.793294 0.551584 -0.257757
vn 0.000000 -1.000000 0.000000
vn 0.000000 -1.000000 0.000000
vn 0.000000 -1.000000 -0.000000
vn 0.000000 -1.000000 0.000000
vn 0.000000 -1.000000 0.000000
vn 0.000000 -1.000000 0.000000
vn 0.000000 -1.000000 0.000000
vn 0.000000 -1.000000 0.000000
vn 0.000000 -1.000000 -0.000000
vn 0.000000 -1.000000 -0.000000
vn 0.000000 -1.000000 0.000000
vn 0.000000 1.000000 0.000000
vn 0.000000 1.000000 0.000000
vn 0.000000 1.000000 -0.000000
vn 0.000000 1.000000 0.000000
vn 0.000000 1.000000 -0.000000
vn 0.000000 1.000000 -0.000000
vn 0.000000 1.000000 0.000000
vn 0.000000 1.000000 0.000000
vn 0.000000 1.000000 -0.000000
vn 0.000000 1.000000 -0.000000
vn 0.000000 1.000000 0.000000
vn -0.223535 0.924863 0.307670
vn -0.223535 0.924863 0.307670
vn 0.000000 0.924863 0.380302
vn 0.000000 0.924863 0.380302
vn 0.223536 0.924863 0.307670
vn 0.223536 0.924863 0.307670
vn 0.361688 0.924863 0.117520
vn 0.361688 0.924863 0.117520
vn 0.361688 0.924863 -0.117520
vn 0.361688 0.924863 -0.117520
vn 0.223536 0.924863 -0.307670
vn 0.223536 0.924863 -0.307670
vn 0.000000 0.924863 -0.380302
vn 0.000000 0.924863 -0.380302
vn -0.223536 0.924863 -0.307670
vn -0.223536 0.924863 -0.307670
vn -0.361688 0.924863 -0.117520
vn -0.361688 0.924863 -0.117520
vn -0.361688 0.924863 0.117520
vn -0.361688 0.924863 0.117520
vn 0.001520 0.999997 -0.002092
vn 0.001520 0.999997 -0.002092
vn 0.001520 0.999997 -0.002092
vn 0.001520 0.999997 -0.002092
vn -0.000000 0.999997 -0.002586
vn -0.000000 0.999997 -0.002586
vn -0.000000 0.999997 -0.002586
vn -0.000000 0.999997 -0.002586
vn -0.001520 0.999997 -0.002092
vn -0.001520 0.999997 -0.002092
vn -0.001520 0.999997 -0.002092
vn -0.001520 0.999997 -0.002092
vn -0.002460 0.999997 -0.000799
vn -0.002460 0.999997 -0.000799
vn -0.002460 0.999997 -0.000799
vn -0.002460 0.999997 -0.000799
vn -0.002460 0.999997 0.000799
vn -0.002460 0.999997 0.000799
vn -0.002460 0.999997 0.000799
vn -0.002460 0.999997 0.000799
vn -0.001520 0.999997 0.002092
vn -0.001520 0.999997 0.002092
vn -0.001520 0.999997 0.002092
vn -0.001520 0.999997 0.002092
vn 0.000000 0.999997 0.002586
vn 0.000000 0.999997 0.002586
vn 0.000000 0.999997 0.002586
vn 0.000000 0.999997 0.002586
vn 0.001520 0.999997 0.002092
vn 0.001520 0.999997 0.002092
vn 0.001520 0.999997 0.002092
vn 0.001520 0.999997 0.002092
vn 0.002460 0.999997 0.000799
vn 0.002460 0.999997 0.000799
vn 0.002460 0.999997 0.000799
vn 0.002460 0.999997 0.000799
vn 0.002460 0.999997 -0.000799
vn 0.002460 0.999997 -0.000799
vn 0.002460 0.999997 -0.000799
vn 0.002460 0.999997 -0.000799
vn 0.539171 0.398217 -0.742104
vn 0.539171 0.398217 -0.742104
vn 0.581964 0.140393 -0.801004
vn 0.581964 0.140393 -0.801004
vn 0.000000 0.398218 -0.917291
vn 0.000000 0.398218 -0.917291
vn 0.000000 0.140393 -0.990096
vn 0.000000 0.140393 -0.990096
vn -0.539171 0.398217 -0.742104
vn -0.539171 0.398217 -0.742104
vn -0.581964 0.140393 -0.801004
vn -0.581964 0.140393 -0.801004
vn -0.872395 0.398218 -0.283459
vn -0.872395 0.398217 -0.283459
vn -0.941637 0.140393 -0.305957
vn -0.941637 0.140393 -0.305957
vn -0.872395 0.398217 0.283459
vn -0.872395 0.398217 0.283459
vn -0.941637 0.140393 0.305957
vn -0.941637 0.140393 0.305957
vn -0.539171 0.398217 0.742104
vn -0.539171 0.398218 0.742104
vn -0.581964 0.140393 0.801004
vn -0.581964 0.140393 0.801004
vn 0.000000 0.398218 0.917291
vn 0.000000 0.398218 0.917291
vn 0.000000 0.140393 0.990096
vn 0.000000 0.140393 0.990096
vn 0.539171 0.398217 0.742104
vn 0.539171 0.398217 0.742104
vn 0.581964 0.140393 0.801004
vn 0.581964 0.140393 0.801004
vn 0.872395 0.398217 0.283459
vn 0.872395 0.398217 0.283459
vn 0.941637 0.140393 0.305957
vn 0.941637 0.140393 0.305957
vn 0.872395 0.398218 -0.283459
vn 0.872395 0.398218 -0.283459
vn 0.941637 0.140393 -0.305957
vn 0.941637 0.140393 -0.305957
vn 0.950411 0.036841 0.308808
vn 0.950411 0.036841 0.308808
vn 0.587387 0.036841 0.808467
vn 0.587387 0.036841 0.808467
vn 0.000000 0.036842 0.999321
vn 0.000000 0.036842 0.999321
vn -0.587387 0.036841 0.808467
vn -0.587387 0.036841 0.808467
vn -0.950411 0.036841 0.308808
vn -0.950411 0.036841 0.308808
vn -0.950411 0.036841 -0.308808
vn -0.950411 0.036841 -0.308808
vn -0.587387 0.036841 -0.808467
vn -0.587387 0.036841 -0.808467
vn 0.000000 0.036842 -0.999321
vn 0.000000 0.036842 -0.999321
vn 0.587387 0.036841 -0.808467
vn 0.587387 0.036841 -0.808467
vn 0.950411 0.036841 -0.308808
vn 0.950411 0.036841 -0.308808
vn 0.945229 -0.110531 0.307124
vn 0.945229 -0.110531 0.307124
vn 0.781136 -0.570446 0.253807
vn 0.781136 -0.570446 0.253807
vn 0.584185 -0.110531 0.804059
vn 0.584185 -0.110531 0.804059
vn 0.482769 -0.570446 0.664473
vn 0.482769 -0.570446 0.664473
vn 0.000000 -0.110531 0.993873
vn 0.000000 -0.110531 0.993873
vn 0.000000 -0.570446 0.821335
vn 0.000000 -0.570446 0.821335
vn -0.584184 -0.110531 0.804059
vn -0.584184 -0.110531 0.804059
vn -0.482769 -0.570446 0.664473
vn -0.482769 -0.570446 0.664474
vn -0.945229 -0.110531 0.307124
vn -0.945229 -0.110531 0.307124
vn -0.781136 -0.570446 0.253807
vn -0.781136 -0.570446 0.253807
vn -0.945229 -0.110531 -0.307124
vn -0.945229 -0.110531 -0.307124
vn -0.781136 -0.570446 -0.253807
vn -0.781136 -0.570446 -0.253807
vn -0.584184 -0.110531 -0.804059
vn -0.584184 -0.110531 -0.804059
vn -0.482769 -0.570446 -0.664474
vn -0.482769 -0.570446 -0.664473
vn 0.000000 -0.110531 -0.993873
vn 0.000000 -0.110531 -0.993873
vn 0.000000 -0.570447 -0.821335
vn 0.000000 -0.570447 -0.821335
vn 0.584184 -0.110531 -0.804059
vn 0.584185 -0.110531 -0.804059
vn 0.482769 -0.570446 -0.664473
vn 0.482769 -0.570446 -0.664473
vn 0.945229 -0.110531 -0.307124
vn 0.945229 -0.110531 -0.307124
vn 0.781136 -0.570446 -0.253807
vn 0.781136 -0.570446 -0.253807
vn 0.595133 -0.780016 0.193370
vn 0.595133 -0.780016 0.193370
vn 0.367812 -0.780016 0.506249
vn 0.367812 -0.780017 0.506249
vn 0.000000 -0.780017 0.625759
vn 0.000000 -0.780017 0.625759
vn -0.367812 -0.780016 0.506249
vn -0.367812 -0.780016 0.506249
vn -0.595133 -0.780016 0.193370
vn -0.595133 -0.780016 0.193370
vn -0.595133 -0.780016 -0.193370
vn -0.595133 -0.780016 -0.193370
vn -0.367813 -0.780016 -0.506249
vn -0.367812 -0.780016 -0.506249
vn 0.000000 -0.780017 -0.625759
vn 0.000000 -0.780017 -0.625759
vn 0.367812 -0.780017 -0.506249
vn 0.367812 -0.780016 -0.506249
vn 0.595133 -0.780016 -0.193370
vn 0.595133 -0.780016 -0.193370
vn 0.540725 -0.822648 0.175692
vn 0.540725 -0.822648 0.175692
vn 0.334187 -0.822648 0.459967
vn 0.334187 -0.822648 0.459967
vn 0.000000 -0.822648 0.568551
vn 0.000000 -0.822648 0.568551
vn -0.334187 -0.822648 0.459968
vn -0.334187 -0.822648 0.459968
vn -0.540725 -0.822647 0.175692
vn -0.540725 -0.822647 0.175692
vn -0.540725 -0.822647 -0.175692
vn -0.540725 -0.822647 -0.175692
vn -0.334187 -0.822648 -0.459968
vn -0.334187 -0.822648 -0.459968
vn 0.000000 -0.822648 -0.568551
vn 0.000000 -0.822648 -0.568551
vn 0.334187 -0.822648 -0.459967
vn 0.334187 -0.822648 -0.459967
vn 0.540725 -0.822648 -0.175692
vn 0.540725 -0.822648 -0.175692
vn 0.008346 0.999899 -0.011488
vn 0.008346 0.999899 -0.011488
vn 0.008346 0.999899 -0.011488
vn 0.008346 0.999899 -0.011488
vn 0.000000 0.999899 -0.014199
vn 0.000000 0.999899 -0.014199
vn 0.000000 0.999899 -0.014199
vn 0.000000 0.999899 -0.014199
vn -0.008346 0.999899 -0.011488
vn -0.008346 0.999899 -0.011488
vn -0.008346 0.999899 -0.011488
vn -0.008346 0.999899 -0.011488
vn -0.013505 0.999899 -0.004388
vn -0.013505 0.999899 -0.004388
vn -0.013505 0.999899 -0.004388
vn -0.013505 0.999899 -0.004388
vn -0.013505 0.999899 0.004388
vn -0.013505 0.999899 0.004388
vn -0.013505 0.999899 0.004388
vn -0.013505 0.999899 0.004388
vn -0.008346 0.999899 0.011488
vn -0.008346 0.999899 0.011488
vn -0.008346 0.999899 0.011488
vn -0.008346 0.999899 0.011488
vn 0.000000 0.999899 0.014200
vn 0.000000 0.999899 0.014200
vn 0.000000 0.999899 0.014200
vn 0.000000 0.999899 0.014200
vn 0.008346 0.999899 0.011488
vn 0.008346 0.999899 0.011488
vn 0.008346 0.999899 0.011488
vn 0.008346 0.999899 0.011488
vn 0.013505 0.999899 0.004388
vn 0.013505 0.999899 0.004388
vn 0.013505 0.999899 0.004388
vn 0.013505 0.999899 0.004388
vn 0.013505 0.999899 -0.004388
vn 0.013505 0.999899 -0.004388
vn 0.013505 0.999899 -0.004388
vn 0.013505 0.999899 -0.004388
vn -0.500288 0.524940 0.688586
vn -0.500288 0.524940 0.688586
vn -0.500288 0.524940 0.688586
vn -0.500288 0.524940 0.688586
vn 0.000000 0.524940 0.851139
vn 0.000000 0.524940 0.851139
vn 0.000000 0.524940 0.851139
vn 0.000000 0.524940 0.851139
vn 0.500288 0.524939 0.688586
vn 0.500288 0.524939 0.688586
vn 0.500288 0.524939 0.688586
vn 0.500288 0.524939 0.688586
vn 0.809482 0.524940 0.263016
vn 0.809482 0.524940 0.263016
vn 0.809482 0.524940 0.263016
vn 0.809482 0.524940 0.263016
vn 0.809482 0.524939 -0.263016
vn 0.809482 0.524939 -0.263016
vn 0.809482 0.524939 -0.263016
vn 0.809482 0.524939 -0.263016
vn 0.500288 0.524940 -0.688586
vn 0.500288 0.524940 -0.688586
vn 0.500288 0.524940 -0.688586
vn 0.500288 0.524940 -0.688586
vn 0.000000 0.524940 -0.851139
vn 0.000000 0.524940 -0.851139
vn 0.000000 0.524940 -0.851139
vn 0.000000 0.524940 -0.851139
vn -0.500288 0.524939 -0.688586
vn -0.500288 0.524939 -0.688586
vn -0.500288 0.524939 -0.688586
vn -0.500288 0.524939 -0.688586
vn -0.809482 0.524939 -0.263016
vn -0.809482 0.524939 -0.263016
vn -0.809482 0.524939 -0.263016
vn -0.809482 0.524939 -0.263016
vn -0.809482 0.524939 0.263016
vn -0.809482 0.524939 0.263016
vn -0.809482 0.524939 0.263016
vn -0.809482 0.524939 0.263016
s 1
g pCylinder1
usemtl initialShadingGroup
f 1/11/1 2/12/2 12/23/3 11/22/4
s 2
f 2/12/5 3/13/6 13/24/7 12/23/8
s 3
f 3/13/9 4/14/10 14/25/11 13/24/12
s 4
f 4/14/13 5/15/14 15/26/15 14/25/16
s 5
f 5/15/17 6/16/18 16/27/19 15/26/20
s 6
f 6/16/21 7/17/22 17/28/23 16/27/24
s 7
f 7/17/25 8/18/26 18/29/27 17/28/28
s 8
f 8/18/29 9/19/30 19/30/31 18/29/32
s 9
f 9/19/33 10/20/34 20/31/35 19/30/36
s 10
f 10/20/37 1/21/38 11/32/39 20/31/40
s 11
f 2/2/41 1/1/42 21/43/43
f 3/3/44 2/2/41 21/43/43
f 4/4/45 3/3/44 21/43/43
f 5/5/46 4/4/45 21/43/43
f 6/6/47 5/5/46 21/43/43
f 7/7/48 6/6/47 21/43/43
f 8/8/49 7/7/48 21/43/43
f 9/9/50 8/8/49 21/43/43
f 10/10/51 9/9/50 21/43/43
f 1/1/42 10/10/51 21/43/43
s 12
f 112/135/52 113/136/53 114/44/54
f 113/136/53 115/137/55 114/44/54
f 115/137/55 116/138/56 114/44/54
f 116/138/56 117/139/57 114/44/54
f 117/139/57 118/140/58 114/44/54
f 118/140/58 119/141/59 114/44/54
f 119/141/59 120/142/60 114/44/54
f 120/142/60 121/143/61 114/44/54
f 121/143/61 122/144/62 114/44/54
f 122/144/62 112/135/52 114/44/54
s 1
f 11/41/4 12/40/3 23/46/63 22/45/64
s 2
f 12/40/8 13/39/7 24/47/65 23/46/66
s 3
f 13/39/12 14/38/11 25/48/67 24/47/68
s 4
f 14/38/16 15/37/15 26/49/69 25/48/70
s 5
f 15/37/20 16/36/19 27/50/71 26/49/72
s 6
f 16/36/24 17/35/23 28/51/73 27/50/74
s 7
f 17/35/28 18/34/27 29/52/75 28/51/76
s 8
f 18/34/32 19/33/31 30/53/77 29/52/78
s 9
f 19/33/36 20/42/35 31/54/79 30/53/80
s 10
f 20/42/40 11/41/39 22/45/81 31/54/82
s off
f 22/45/83 23/46/84 33/56/85 32/55/86
f 23/46/87 24/47/88 34/57/89 33/56/90
f 24/47/91 25/48/92 35/58/93 34/57/94
f 25/48/95 26/49/96 36/59/97 35/58/98
f 26/49/99 27/50/100 37/60/101 36/59/102
f 27/50/103 28/51/104 38/61/105 37/60/106
f 28/51/107 29/52/108 39/62/109 38/61/110
f 29/52/111 30/53/112 40/63/113 39/62/114
f 30/53/115 31/54/116 41/64/117 40/63/118
f 31/54/119 22/45/120 32/55/121 41/64/122
s 13
f 32/55/123 33/56/124 60/83/125 61/84/126
s 14
f 33/56/127 34/57/128 59/82/129 60/83/130
s 15
f 34/57/131 35/58/132 58/81/133 59/82/134
s 16
f 35/58/135 36/59/136 57/80/137 58/81/138
s 17
f 36/59/139 37/60/140 56/79/141 57/80/142
s 18
f 37/60/143 38/61/144 55/78/145 56/79/146
s 19
f 38/61/147 39/62/148 54/77/149 55/78/150
s 20
f 39/62/151 40/63/152 53/76/153 54/77/154
s 21
f 40/63/155 41/64/156 52/75/157 53/76/158
s 22
f 41/64/159 32/55/160 61/84/161 52/75/162
s 21
f 53/76/158 52/75/157 82/105/163 83/106/164
s 20
f 54/77/154 53/76/153 83/106/165 84/107/166
s 19
f 55/78/150 54/77/149 84/107/167 85/108/168
s 18
f 56/79/146 55/78/145 85/108/169 86/109/170
s 17
f 57/80/142 56/79/141 86/109/171 87/110/172
s 16
f 58/81/138 57/80/137 87/110/173 88/111/174
s 15
f 59/82/134 58/81/133 88/111/175 89/112/176
s 14
f 60/83/130 59/82/129 89/112/177 90/113/178
s 13
f 61/84/126 60/83/125 90/113/179 91/114/180
s 22
f 52/75/162 61/84/161 91/114/181 82/105/182
s 21
f 63/86/183 62/85/184 72/95/185 73/96/186
s 20
f 64/87/187 63/86/188 73/96/189 74/97/190
s 19
f 65/88/191 64/87/192 74/97/193 75/98/194
s 18
f 66/89/195 65/88/196 75/98/197 76/99/198
s 17
f 67/90/199 66/89/200 76/99/201 77/100/202
s 16
f 68/91/203 67/90/204 77/100/205 78/101/206
s 15
f 69/92/207 68/91/208 78/101/209 79/102/210
s 14
f 70/93/211 69/92/212 79/102/213 80/103/214
s 13
f 71/94/215 70/93/216 80/103/217 81/104/218
s 22
f 62/85/219 71/94/220 81/104/221 72/95/222
s 21
f 73/96/186 72/95/185 92/115/223 93/116/224
s 20
f 74/97/190 73/96/189 93/116/225 94/117/226
s 19
f 75/98/194 74/97/193 94/117/227 95/118/228
s 18
f 76/99/198 75/98/197 95/118/229 96/119/230
s 17
f 77/100/202 76/99/201 96/119/231 97/120/232
s 16
f 78/101/206 77/100/205 97/120/233 98/121/234
s 15
f 79/102/210 78/101/209 98/121/235 99/122/236
s 14
f 80/103/214 79/102/213 99/122/237 100/123/238
s 13
f 81/104/218 80/103/217 100/123/239 101/124/240
s 22
f 72/95/222 81/104/221 101/124/241 92/115/242
s 21
f 83/106/164 82/105/163 62/85/184 63/86/183
s 20
f 84/107/166 83/106/165 63/86/188 64/87/187
s 19
f 85/108/168 84/107/167 64/87/192 65/88/191
s 18
f 86/109/170 85/108/169 65/88/196 66/89/195
s 17
f 87/110/172 86/109/171 66/89/200 67/90/199
s 16
f 88/111/174 87/110/173 67/90/204 68/91/203
s 15
f 89/112/176 88/111/175 68/91/208 69/92/207
s 14
f 90/113/178 89/112/177 69/92/212 70/93/211
s 13
f 91/114/180 90/113/179 70/93/216 71/94/215
s 22
f 82/105/182 91/114/181 71/94/220 62/85/219
s 21
f 93/116/224 92/115/223 51/74/243 50/73/244
s 20
f 94/117/226 93/116/225 50/73/245 49/72/246
s 19
f 95/118/228 94/117/227 49/72/247 48/71/248
s 18
f 96/119/230 95/118/229 48/71/249 47/70/250
s 17
f 97/120/232 96/119/231 47/70/251 46/69/252
s 16
f 98/121/234 97/120/233 46/69/253 45/68/254
s 15
f 99/122/236 98/121/235 45/68/255 44/67/256
s 14
f 100/123/238 99/122/237 44/67/257 43/66/258
s 13
f 101/124/240 100/123/239 43/66/259 42/65/260
s 22
f 92/115/242 101/124/241 42/65/261 51/74/262
s off
f 42/65/263 43/66/264 103/126/265 102/125/266
f 43/66/267 44/67/268 104/127/269 103/126/270
f 44/67/271 45/68/272 105/128/273 104/127/274
f 45/68/275 46/69/276 106/129/277 105/128/278
f 46/69/279 47/70/280 107/130/281 106/129/282
f 47/70/283 48/71/284 108/131/285 107/130/286
f 48/71/287 49/72/288 109/132/289 108/131/290
f 49/72/291 50/73/292 110/133/293 109/132/294
f 50/73/295 51/74/296 111/134/297 110/133/298
f 51/74/299 42/65/300 102/125/301 111/134/302
f 102/125/303 103/126/304 113/136/305 112/135/306
f 103/126/307 104/127/308 115/137/309 113/136/310
f 104/127/311 105/128/312 116/138/313 115/137/314
f 105/128/315 106/129/316 117/139/317 116/138/318
f 106/129/319 107/130/320 118/140/321 117/139/322
f 107/130/323 108/131/324 119/141/325 118/140/326
f 108/131/327 109/132/328 120/142/329 119/141/330
f 109/132/331 110/133/332 121/143/333 120/142/334
f 110/133/335 111/134/336 122/144/337 121/143/338
f 111/134/339 102/125/340 112/135/341 122/144/342
