# This file uses centimeters as units for non-parametric coordinates.

mtllib roof2.mtl
g default
v -0.500000 0.000554 0.500000
v 0.500000 0.000554 0.500000
v -0.500000 0.250554 0.500000
v 0.500000 0.250554 0.500000
v -0.500000 0.250554 0.375000
v 0.500000 0.250554 0.375000
v -0.500000 0.244904 0.250000
v 0.500000 0.244904 0.250000
v -0.500000 0.283258 0.125000
v 0.500000 0.283258 0.125000
v -0.500000 0.311030 0.000000
v 0.500000 0.311030 0.000000
v -0.500000 0.283258 -0.125000
v 0.500000 0.283258 -0.125000
v -0.500000 0.244904 -0.250000
v 0.500000 0.244904 -0.250000
v -0.500000 0.250554 -0.375000
v 0.500000 0.250554 -0.375000
v -0.500000 0.250554 -0.500000
v 0.500000 0.250554 -0.500000
v -0.500000 0.000554 -0.500000
v 0.500000 0.000554 -0.500000
v -0.500000 0.000554 -0.375000
v 0.500000 0.000554 -0.375000
v -0.500000 0.000554 -0.250000
v 0.500000 0.000554 -0.250000
v -0.500000 0.000554 -0.125000
v 0.500000 0.000554 -0.125000
v -0.500000 0.000554 0.000000
v 0.500000 0.000554 0.000000
v -0.500000 0.000554 0.125000
v 0.500000 0.000554 0.125000
v -0.500000 0.000554 0.250000
v 0.500000 0.000554 0.250000
v -0.500000 0.000554 0.375000
v 0.500000 0.000554 0.375000
v -0.500000 0.219221 -0.250000
v -0.500000 0.219791 -0.375000
v -0.500000 0.219791 -0.500000
v 0.500000 0.219791 -0.500000
v 0.500000 0.219791 -0.375000
v 0.500000 0.219221 -0.250000
v 0.500000 0.247657 -0.125000
v 0.500000 0.273556 0.000000
v 0.500000 0.247657 0.125000
v 0.500000 0.219221 0.250000
v 0.500000 0.219791 0.375000
v 0.500000 0.219791 0.500000
v -0.500000 0.219791 0.500000
v -0.500000 0.219791 0.375000
v -0.500000 0.219221 0.250000
v -0.500000 0.247657 0.125000
v -0.500000 0.273556 0.000000
v -0.500000 0.247657 -0.125000
v -0.517048 0.217041 -0.257494
v -0.517048 0.217041 -0.386241
v -0.517048 0.245277 -0.257494
v -0.517048 0.248726 -0.386241
v -0.517048 0.217041 -0.517048
v -0.517048 0.248726 -0.517048
v 0.517048 0.248726 -0.517048
v 0.517048 0.217041 -0.517048
v 0.517048 0.217041 -0.386241
v 0.517048 0.248726 -0.386241
v 0.517048 0.217041 -0.257494
v 0.517048 0.245277 -0.257494
v 0.517048 0.249401 -0.128747
v 0.517048 0.286755 -0.128747
v 0.517048 0.275602 0.000000
v 0.517048 0.315360 0.000000
v 0.517048 0.249401 0.128747
v 0.517048 0.286755 0.128747
v 0.517048 0.217041 0.257494
v 0.517048 0.245277 0.257494
v 0.517048 0.217041 0.386241
v 0.517048 0.248726 0.386241
v 0.517048 0.217041 0.517048
v 0.517048 0.248726 0.517048
v -0.517048 0.217041 0.517048
v -0.517048 0.248726 0.517048
v -0.517048 0.217041 0.386241
v -0.517048 0.248726 0.386241
v -0.517048 0.217041 0.257494
v -0.517048 0.245277 0.257494
v -0.517048 0.249401 0.128747
v -0.517048 0.286755 0.128747
v -0.517048 0.275602 0.000000
v -0.517048 0.315360 0.000000
v -0.517048 0.249401 -0.128747
v -0.517048 0.286755 -0.128747
vt 0.375000 0.000000
vt 0.625000 0.000000
vt 0.375000 0.250000
vt 0.625000 0.250000
vt 0.375000 0.281250
vt 0.625000 0.281250
vt 0.375000 0.312500
vt 0.625000 0.312500
vt 0.375000 0.343750
vt 0.625000 0.343750
vt 0.375000 0.375000
vt 0.625000 0.375000
vt 0.375000 0.406250
vt 0.625000 0.406250
vt 0.375000 0.437500
vt 0.625000 0.437500
vt 0.375000 0.468750
vt 0.625000 0.468750
vt 0.375000 0.500000
vt 0.625000 0.500000
vt 0.375000 0.750000
vt 0.625000 0.750000
vt 0.375000 0.781250
vt 0.625000 0.781250
vt 0.375000 0.812500
vt 0.625000 0.812500
vt 0.375000 0.843750
vt 0.625000 0.843750
vt 0.375000 0.875000
vt 0.625000 0.875000
vt 0.375000 0.906250
vt 0.625000 0.906250
vt 0.375000 0.937500
vt 0.625000 0.937500
vt 0.375000 0.968750
vt 0.625000 0.968750
vt 0.375000 1.000000
vt 0.625000 1.000000
vt 0.875000 0.000000
vt 0.843750 0.000000
vt 0.812500 0.000000
vt 0.781250 0.000000
vt 0.750000 0.000000
vt 0.718750 0.000000
vt 0.687500 0.000000
vt 0.656250 0.000000
vt 0.875000 0.250000
vt 0.843750 0.250000
vt 0.812500 0.250000
vt 0.781250 0.250000
vt 0.750000 0.250000
vt 0.718750 0.250000
vt 0.687500 0.250000
vt 0.656250 0.250000
vt 0.125000 0.000000
vt 0.156250 0.000000
vt 0.187500 0.000000
vt 0.218750 0.000000
vt 0.250000 0.000000
vt 0.281250 0.000000
vt 0.312500 0.000000
vt 0.343750 0.000000
vt 0.125000 0.250000
vt 0.156250 0.250000
vt 0.187500 0.250000
vt 0.218750 0.250000
vt 0.250000 0.250000
vt 0.281250 0.250000
vt 0.312500 0.250000
vt 0.343750 0.250000
vt 0.187500 0.219237
vt 0.156250 0.219237
vt 0.125000 0.219237
vt 0.375000 0.530763
vt 0.625000 0.530763
vt 0.875000 0.219237
vt 0.843750 0.219237
vt 0.812500 0.219237
vt 0.781250 0.219237
vt 0.750000 0.219237
vt 0.718750 0.219237
vt 0.687500 0.219237
vt 0.656250 0.219237
vt 0.625000 0.219237
vt 0.375000 0.219237
vt 0.343750 0.219237
vt 0.312500 0.219237
vt 0.281250 0.219237
vt 0.250000 0.219237
vt 0.218750 0.219237
vt 0.156250 0.219237
vt 0.187500 0.219237
vt 0.187500 0.250000
vt 0.156250 0.250000
vt 0.125000 0.219237
vt 0.125000 0.250000
vt 0.375000 0.500000
vt 0.625000 0.500000
vt 0.625000 0.530763
vt 0.375000 0.530763
vt 0.843750 0.219237
vt 0.875000 0.219237
vt 0.875000 0.250000
vt 0.843750 0.250000
vt 0.812500 0.219237
vt 0.812500 0.250000
vt 0.781250 0.219237
vt 0.781250 0.250000
vt 0.750000 0.219237
vt 0.750000 0.250000
vt 0.718750 0.219237
vt 0.718750 0.250000
vt 0.687500 0.219237
vt 0.687500 0.250000
vt 0.656250 0.219237
vt 0.656250 0.250000
vt 0.625000 0.219237
vt 0.625000 0.250000
vt 0.375000 0.219237
vt 0.375000 0.250000
vt 0.343750 0.219237
vt 0.343750 0.250000
vt 0.312500 0.219237
vt 0.312500 0.250000
vt 0.281250 0.219237
vt 0.281250 0.250000
vt 0.250000 0.219237
vt 0.250000 0.250000
vt 0.218750 0.219237
vt 0.218750 0.250000
vn 0.000000 0.000000 1.000000
vn 0.000000 0.000000 1.000000
vn 0.000000 0.000000 1.000000
vn 0.000000 0.000000 1.000000
vn -0.002240 0.999839 0.017811
vn 0.002240 0.999839 0.017811
vn 0.001289 0.999743 -0.022614
vn -0.001289 0.999743 -0.022614
vn -0.001673 0.991458 0.130412
vn 0.001674 0.991458 0.130412
vn -0.003922 0.966689 0.255924
vn 0.003922 0.966689 0.255924
vn -0.005646 0.999984 0.000000
vn 0.005646 0.999984 0.000000
vn -0.003922 0.966689 -0.255924
vn 0.003922 0.966689 -0.255924
vn -0.001674 0.991458 -0.130412
vn 0.001673 0.991458 -0.130412
vn 0.001289 0.999743 0.022614
vn -0.001289 0.999743 0.022614
vn 0.002240 0.999839 -0.017811
vn -0.002240 0.999839 -0.017811
vn 0.000000 0.000000 -1.000000
vn 0.000000 0.000000 -1.000000
vn 0.000000 0.000000 -1.000000
vn 0.000000 0.000000 -1.000000
vn 0.000000 -1.000000 0.000000
vn 0.000000 -1.000000 0.000000
vn 0.000000 -1.000000 0.000000
vn 0.000000 -1.000000 0.000000
vn 0.000000 -1.000000 0.000000
vn 0.000000 -1.000000 0.000000
vn 0.000000 -1.000000 0.000000
vn 0.000000 -1.000000 0.000000
vn 0.000000 -1.000000 0.000000
vn 0.000000 -1.000000 0.000000
vn 0.000000 -1.000000 0.000000
vn 0.000000 -1.000000 0.000000
vn 0.000000 -1.000000 0.000000
vn 0.000000 -1.000000 0.000000
vn 0.000000 -1.000000 0.000000
vn 0.000000 -1.000000 0.000000
vn 0.000000 -1.000000 0.000000
vn 0.000000 -1.000000 0.000000
vn 1.000000 0.000000 0.000000
vn 1.000000 0.000000 0.000000
vn 1.000000 0.000000 0.000000
vn 1.000000 0.000000 0.000000
vn 1.000000 0.000000 0.000000
vn 1.000000 0.000000 0.000000
vn 1.000000 0.000000 0.000000
vn 1.000000 0.000000 0.000000
vn 1.000000 0.000000 0.000000
vn 1.000000 0.000000 0.000000
vn 1.000000 0.000000 0.000000
vn 1.000000 0.000000 0.000000
vn 1.000000 0.000000 0.000000
vn 1.000000 0.000000 0.000000
vn 1.000000 0.000000 0.000000
vn 1.000000 0.000000 0.000000
vn 1.000000 0.000000 0.000000
vn 1.000000 0.000000 0.000000
vn -1.000000 0.000000 0.000000
vn -1.000000 0.000000 0.000000
vn -1.000000 0.000000 0.000000
vn -1.000000 0.000000 0.000000
vn -1.000000 0.000000 0.000000
vn -1.000000 0.000000 0.000000
vn -1.000000 0.000000 0.000000
vn -1.000000 0.000000 0.000000
vn -1.000000 0.000000 0.000000
vn -1.000000 0.000000 0.000000
vn -1.000000 0.000000 0.000000
vn -1.000000 0.000000 0.000000
vn -1.000000 0.000000 0.000000
vn -1.000000 0.000000 0.000000
vn -1.000000 0.000000 0.000000
vn -1.000000 0.000000 0.000000
vn -1.000000 0.000000 0.000000
vn -1.000000 0.000000 0.000000
vn -1.000000 0.000000 0.000000
vn -1.000000 0.000000 0.000000
vn -1.000000 0.000000 0.000000
vn -1.000000 0.000000 0.000000
vn -1.000000 0.000000 0.000000
vn -1.000000 0.000000 0.000000
vn 0.000000 0.000000 -1.000000
vn 0.000000 0.000000 -1.000000
vn 0.000000 0.000000 -1.000000
vn 0.000000 0.000000 -1.000000
vn 1.000000 0.000000 0.000000
vn 1.000000 0.000000 0.000000
vn 1.000000 0.000000 0.000000
vn 1.000000 0.000000 0.000000
vn 1.000000 0.000000 0.000000
vn 1.000000 0.000000 0.000000
vn 1.000000 0.000000 0.000000
vn 1.000000 0.000000 0.000000
vn 1.000000 0.000000 0.000000
vn 1.000000 0.000000 0.000000
vn 1.000000 0.000000 0.000000
vn 1.000000 0.000000 0.000000
vn 1.000000 0.000000 0.000000
vn 1.000000 0.000000 0.000000
vn 1.000000 0.000000 0.000000
vn 1.000000 0.000000 0.000000
vn 1.000000 0.000000 0.000000
vn 1.000000 0.000000 0.000000
vn 0.000000 0.000000 1.000000
vn 0.000000 0.000000 1.000000
vn 0.000000 0.000000 1.000000
vn 0.000000 0.000000 1.000000
vn -1.000000 0.000000 0.000000
vn -1.000000 0.000000 0.000000
vn -1.000000 0.000000 0.000000
vn -1.000000 0.000000 0.000000
vn -1.000000 0.000000 0.000000
vn -1.000000 0.000000 0.000000
vn -1.000000 0.000000 0.000000
vn -1.000000 0.000000 0.000000
vn -1.000000 0.000000 0.000000
vn -1.000000 0.000000 0.000000
vn -1.000000 0.000000 0.000000
vn -1.000000 0.000000 0.000000
vn 0.149441 -0.988770 -0.001461
vn 0.144321 -0.989528 -0.002222
vn 0.144321 -0.989529 -0.002222
vn 0.154239 -0.988033 -0.000748
vn -0.091844 0.995702 0.011934
vn -0.062220 0.997421 0.035765
vn 0.017837 -0.989730 0.141831
vn 0.017837 -0.989730 0.141831
vn -0.011924 0.995423 -0.094818
vn 0.011924 0.995423 -0.094818
vn -0.017837 -0.989730 0.141831
vn -0.017837 -0.989730 0.141831
vn -0.149441 -0.988769 -0.001461
vn -0.154239 -0.988033 -0.000748
vn 0.091844 0.995702 0.011934
vn -0.144321 -0.989528 -0.002222
vn -0.144321 -0.989528 -0.002222
vn 0.062220 0.997421 0.035765
vn 0.064224 -0.970470 0.232518
vn 0.064224 -0.970470 0.232518
vn 0.064224 -0.970470 0.232518
vn 0.064224 -0.970470 0.232518
vn -0.202907 0.934061 -0.293870
vn -0.202907 0.934061 -0.293870
vn 0.132512 -0.991181 0.000000
vn 0.129851 -0.971272 0.199423
vn 0.129851 -0.971272 0.199423
vn 0.132512 -0.991181 0.000000
vn -0.246151 0.969231 0.000000
vn -0.240635 0.947512 -0.210513
vn 0.129851 -0.971272 -0.199423
vn 0.129851 -0.971272 -0.199423
vn -0.240635 0.947512 0.210513
vn 0.064224 -0.970469 -0.232518
vn 0.064224 -0.970469 -0.232518
vn 0.064223 -0.970469 -0.232517
vn 0.064224 -0.970469 -0.232518
vn -0.202907 0.934061 0.293870
vn -0.202907 0.934061 0.293870
vn -0.149441 -0.988770 0.001461
vn -0.144321 -0.989528 0.002222
vn -0.144321 -0.989529 0.002222
vn -0.154239 -0.988033 0.000748
vn 0.091844 0.995702 -0.011934
vn 0.062220 0.997421 -0.035765
vn -0.017837 -0.989730 -0.141831
vn -0.017837 -0.989730 -0.141831
vn 0.011924 0.995423 0.094818
vn 0.017837 -0.989730 -0.141831
vn 0.017837 -0.989730 -0.141831
vn -0.011924 0.995423 0.094818
vn 0.149441 -0.988769 0.001461
vn 0.154239 -0.988033 0.000748
vn -0.091844 0.995702 -0.011934
vn 0.144321 -0.989528 0.002222
vn 0.144321 -0.989528 0.002222
vn -0.062220 0.997421 -0.035765
vn -0.064224 -0.970470 -0.232518
vn -0.064224 -0.970470 -0.232518
vn -0.064224 -0.970470 -0.232518
vn -0.064224 -0.970470 -0.232518
vn 0.202907 0.934061 0.293870
vn 0.202907 0.934061 0.293870
vn -0.132512 -0.991181 -0.000000
vn -0.129851 -0.971272 -0.199423
vn -0.129851 -0.971272 -0.199423
vn -0.132512 -0.991181 -0.000000
vn 0.246151 0.969231 0.000000
vn 0.240635 0.947512 0.210513
vn -0.129851 -0.971272 0.199423
vn -0.129851 -0.971272 0.199423
vn 0.240635 0.947512 -0.210513
vn -0.064224 -0.970469 0.232518
vn -0.064224 -0.970469 0.232518
vn -0.064223 -0.970469 0.232517
vn -0.064224 -0.970469 0.232518
vn 0.202907 0.934061 -0.293870
vn 0.202907 0.934061 -0.293870
s off
g pCube2
usemtl initialShadingGroup
f 1/1/1 2/2/2 48/84/3 49/85/4
s 1
f 3/3/5 4/4/6 6/6/7 5/5/8
f 5/5/8 6/6/7 8/8/9 7/7/10
f 7/7/10 8/8/9 10/10/11 9/9/12
f 9/9/12 10/10/11 12/12/13 11/11/14
f 11/11/14 12/12/13 14/14/15 13/13/16
f 13/13/16 14/14/15 16/16/17 15/15/18
f 15/15/18 16/16/17 18/18/19 17/17/20
f 17/17/20 18/18/19 20/20/21 19/19/22
s off
f 39/74/23 40/75/24 22/22/25 21/21/26
s 2
f 21/21/27 22/22/28 24/24/29 23/23/30
f 23/23/30 24/24/29 26/26/31 25/25/32
f 25/25/32 26/26/31 28/28/33 27/27/34
f 27/27/34 28/28/33 30/30/35 29/29/36
f 29/29/36 30/30/35 32/32/37 31/31/38
f 31/31/38 32/32/37 34/34/39 33/33/40
f 33/33/40 34/34/39 36/36/41 35/35/42
f 35/35/42 36/36/41 2/38/43 1/37/44
s 3
f 24/40/45 22/39/46 40/76/47 41/77/48
f 26/41/49 24/40/45 41/77/48 42/78/50
f 28/42/51 26/41/49 42/78/50 43/79/52
f 30/43/53 28/42/51 43/79/52 44/80/54
f 32/44/55 30/43/53 44/80/54 45/81/56
f 34/45/57 32/44/55 45/81/56 46/82/58
f 36/46/59 34/45/57 46/82/58 47/83/60
f 2/2/61 36/46/59 47/83/60 48/84/62
s 4
f 21/55/63 23/56/64 38/72/65 39/73/66
f 23/56/64 25/57/67 37/71/68 38/72/65
f 25/57/67 27/58/69 54/90/70 37/71/68
f 27/58/69 29/59/71 53/89/72 54/90/70
f 29/59/71 31/60/73 52/88/74 53/89/72
f 31/60/73 33/61/75 51/87/76 52/88/74
f 33/61/75 35/62/77 50/86/78 51/87/76
f 35/62/77 1/1/79 49/85/80 50/86/78
s 5
f 56/91/81 55/92/82 57/93/83 58/94/84
f 59/95/85 56/91/81 58/94/84 60/96/86
s off
f 60/97/87 61/98/88 62/99/89 59/100/90
s 6
f 63/101/91 62/102/92 61/103/93 64/104/94
f 65/105/95 63/101/91 64/104/94 66/106/96
f 67/107/97 65/105/95 66/106/96 68/108/98
f 69/109/99 67/107/97 68/108/98 70/110/100
f 71/111/101 69/109/99 70/110/100 72/112/102
f 73/113/103 71/111/101 72/112/102 74/114/104
f 75/115/105 73/113/103 74/114/104 76/116/106
f 77/117/107 75/115/105 76/116/106 78/118/108
s off
f 79/119/109 77/117/110 78/118/111 80/120/112
s 5
f 81/121/113 79/119/114 80/120/115 82/122/116
f 83/123/117 81/121/113 82/122/116 84/124/118
f 85/125/119 83/123/117 84/124/118 86/126/120
f 87/127/121 85/125/119 86/126/120 88/128/122
f 89/129/123 87/127/121 88/128/122 90/130/124
f 55/92/82 89/129/123 90/130/124 57/93/83
s 8
f 38/72/125 37/71/126 55/92/127 56/91/128
s 1
f 15/65/18 17/64/20 58/94/129 57/93/130
s 8
f 39/73/131 38/72/125 56/91/128 59/95/132
s 1
f 17/64/20 19/63/22 60/96/133 58/94/129
f 19/19/22 20/20/21 61/98/134 60/97/133
s 8
f 40/75/135 39/74/131 59/100/132 62/99/136
f 41/77/137 40/76/135 62/102/136 63/101/138
s 1
f 20/47/21 18/48/19 64/104/139 61/103/134
s 8
f 42/78/140 41/77/137 63/101/138 65/105/141
s 1
f 18/48/19 16/49/17 66/106/142 64/104/139
s off
f 43/79/143 42/78/144 65/105/145 67/107/146
s 1
f 16/49/17 14/50/15 68/108/147 66/106/148
s 9
f 44/80/149 43/79/150 67/107/151 69/109/152
s 1
f 14/50/15 12/51/13 70/110/153 68/108/154
s 9
f 45/81/155 44/80/149 69/109/152 71/111/156
s 1
f 12/51/13 10/52/11 72/112/157 70/110/153
s off
f 46/82/158 45/81/159 71/111/160 73/113/161
s 1
f 10/52/11 8/53/9 74/114/162 72/112/163
s 10
f 47/83/164 46/82/165 73/113/166 75/115/167
s 1
f 8/53/9 6/54/7 76/116/168 74/114/169
s 10
f 48/84/170 47/83/164 75/115/167 77/117/171
s 1
f 6/54/7 4/4/6 78/118/172 76/116/168
s 10
f 49/85/173 48/84/170 77/117/171 79/119/174
s 1
f 4/4/6 3/3/5 80/120/175 78/118/172
s 10
f 50/86/176 49/85/173 79/119/174 81/121/177
s 1
f 3/3/5 5/70/8 82/122/178 80/120/175
s 10
f 51/87/179 50/86/176 81/121/177 83/123/180
s 1
f 5/70/8 7/69/10 84/124/181 82/122/178
s off
f 52/88/182 51/87/183 83/123/184 85/125/185
s 1
f 7/69/10 9/68/12 86/126/186 84/124/187
s 11
f 53/89/188 52/88/189 85/125/190 87/127/191
s 1
f 9/68/12 11/67/14 88/128/192 86/126/193
s 11
f 54/90/194 53/89/188 87/127/191 89/129/195
s 1
f 11/67/14 13/66/16 90/130/196 88/128/192
s off
f 37/71/197 54/90/198 89/129/199 55/92/200
s 1
f 13/66/16 15/65/18 57/93/201 90/130/202
