# This file uses centimeters as units for non-parametric coordinates.

mtllib roof3.mtl
g default
v -0.500000 0.000554 0.500000
v -0.375000 0.000554 0.500000
v -0.125000 0.000554 0.500000
v 0.125000 0.000554 0.500000
v 0.375000 0.000554 0.500000
v 0.500000 0.000554 0.500000
v -0.500000 0.250554 0.500000
v -0.375000 0.250554 0.500000
v -0.125000 0.250554 0.500000
v 0.125000 0.250554 0.500000
v 0.375000 0.250554 0.500000
v 0.500000 0.250554 0.500000
v -0.500000 0.250554 0.375000
v -0.375000 0.250554 0.375000
v -0.125000 0.250554 0.375000
v 0.125000 0.250554 0.375000
v 0.375000 0.250554 0.375000
v 0.500000 0.250554 0.375000
v -0.500000 0.250554 0.125000
v -0.375000 0.250554 0.125000
v -0.125000 0.343163 0.125000
v 0.125000 0.343163 0.125000
v 0.375000 0.250554 0.125000
v 0.500000 0.250554 0.125000
v -0.500000 0.250554 -0.125000
v -0.375000 0.250554 -0.125000
v -0.125000 0.343163 -0.125000
v 0.125000 0.343163 -0.125000
v 0.375000 0.250554 -0.125000
v 0.500000 0.250554 -0.125000
v -0.500000 0.250554 -0.375000
v -0.375000 0.250554 -0.375000
v -0.125000 0.250554 -0.375000
v 0.125000 0.250554 -0.375000
v 0.375000 0.250554 -0.375000
v 0.500000 0.250554 -0.375000
v -0.500000 0.250554 -0.500000
v -0.375000 0.250554 -0.500000
v -0.125000 0.250554 -0.500000
v 0.125000 0.250554 -0.500000
v 0.375000 0.250554 -0.500000
v 0.500000 0.250554 -0.500000
v -0.500000 0.000554 -0.500000
v -0.375000 0.000554 -0.500000
v -0.125000 0.000554 -0.500000
v 0.125000 0.000554 -0.500000
v 0.375000 0.000554 -0.500000
v 0.500000 0.000554 -0.500000
v -0.500000 0.000554 -0.375000
v -0.375000 0.000554 -0.375000
v -0.125000 0.000554 -0.375000
v 0.125000 0.000554 -0.375000
v 0.375000 0.000554 -0.375000
v 0.500000 0.000554 -0.375000
v -0.500000 0.000554 -0.125000
v -0.375000 0.000554 -0.125000
v -0.125000 0.000554 -0.125000
v 0.125000 0.000554 -0.125000
v 0.375000 0.000554 -0.125000
v 0.500000 0.000554 -0.125000
v -0.500000 0.000554 0.125000
v -0.375000 0.000554 0.125000
v -0.125000 0.000554 0.125000
v 0.125000 0.000554 0.125000
v 0.375000 0.000554 0.125000
v 0.500000 0.000554 0.125000
v -0.500000 0.000554 0.375000
v -0.375000 0.000554 0.375000
v -0.125000 0.000554 0.375000
v 0.125000 0.000554 0.375000
v 0.375000 0.000554 0.375000
v 0.500000 0.000554 0.375000
v -0.500000 0.208204 -0.500000
v -0.500000 0.208204 -0.375000
v -0.500000 0.208204 -0.125000
v -0.500000 0.208204 0.125000
v -0.500000 0.208204 0.375000
v -0.500000 0.208204 0.500000
v -0.375000 0.208204 0.500000
v -0.125000 0.208204 0.500000
v 0.125000 0.208204 0.500000
v 0.375000 0.208204 0.500000
v 0.500000 0.208204 0.500000
v 0.500000 0.208204 0.375000
v 0.500000 0.208204 0.125000
v 0.500000 0.208204 -0.125000
v 0.500000 0.208204 -0.375000
v 0.500000 0.208204 -0.500000
v 0.375000 0.208204 -0.500000
v 0.125000 0.208204 -0.500000
v -0.125000 0.208204 -0.500000
v -0.375000 0.208204 -0.500000
v -0.500000 0.111726 -0.500000
v -0.500000 0.111726 -0.375000
v -0.500000 0.111726 -0.125000
v -0.500000 0.111726 0.125000
v -0.500000 0.111726 0.375000
v -0.500000 0.111726 0.500000
v -0.375000 0.111726 0.500000
v -0.125000 0.111726 0.500000
v 0.125000 0.111726 0.500000
v 0.375000 0.111726 0.500000
v 0.500000 0.111726 0.500000
v 0.500000 0.111726 0.375000
v 0.500000 0.111726 0.125000
v 0.500000 0.111726 -0.125000
v 0.500000 0.111726 -0.375000
v 0.500000 0.111726 -0.500000
v 0.375000 0.111726 -0.500000
v 0.125000 0.111726 -0.500000
v -0.125000 0.111726 -0.500000
v -0.375000 0.111726 -0.500000
v -0.481014 0.113743 -0.481014
v -0.481014 0.113743 -0.359323
v -0.481014 0.206187 -0.359323
v -0.481014 0.206187 -0.481014
v -0.481014 0.206187 -0.119774
v -0.481014 0.113743 -0.119774
v -0.481014 0.206187 0.119774
v -0.481014 0.113743 0.119774
v -0.481014 0.206187 0.359323
v -0.481014 0.113743 0.359323
v -0.481014 0.113743 0.481014
v -0.481014 0.206187 0.481014
v -0.359323 0.113743 0.481014
v -0.359323 0.206187 0.481014
v -0.119774 0.206187 0.481014
v -0.119774 0.113743 0.481014
v 0.119774 0.206187 0.481014
v 0.119774 0.113743 0.481014
v 0.359323 0.206187 0.481014
v 0.359323 0.113743 0.481014
v 0.481014 0.113743 0.481014
v 0.481014 0.206187 0.481014
v 0.481014 0.113743 0.359323
v 0.481014 0.206187 0.359323
v 0.481014 0.206187 0.119774
v 0.481014 0.113743 0.119774
v 0.481014 0.206187 -0.119774
v 0.481014 0.113743 -0.119774
v 0.481014 0.206187 -0.359323
v 0.481014 0.113743 -0.359323
v 0.481014 0.113743 -0.481014
v 0.481014 0.206187 -0.481014
v 0.359323 0.206187 -0.481014
v 0.359323 0.113743 -0.481014
v 0.119774 0.206187 -0.481014
v 0.119774 0.113743 -0.481014
v -0.119774 0.206187 -0.481014
v -0.119774 0.113743 -0.481014
v -0.359323 0.206187 -0.481014
v -0.359323 0.113743 -0.481014
vt 0.375000 0.000000
vt 0.406250 0.000000
vt 0.468750 0.000000
vt 0.531250 0.000000
vt 0.593750 0.000000
vt 0.625000 0.000000
vt 0.375000 0.250000
vt 0.406250 0.250000
vt 0.468750 0.250000
vt 0.531250 0.250000
vt 0.593750 0.250000
vt 0.625000 0.250000
vt 0.375000 0.281250
vt 0.406250 0.281250
vt 0.468750 0.281250
vt 0.531250 0.281250
vt 0.593750 0.281250
vt 0.625000 0.281250
vt 0.375000 0.343750
vt 0.406250 0.343750
vt 0.468750 0.343750
vt 0.531250 0.343750
vt 0.593750 0.343750
vt 0.625000 0.343750
vt 0.375000 0.406250
vt 0.406250 0.406250
vt 0.468750 0.406250
vt 0.531250 0.406250
vt 0.593750 0.406250
vt 0.625000 0.406250
vt 0.375000 0.468750
vt 0.406250 0.468750
vt 0.468750 0.468750
vt 0.531250 0.468750
vt 0.593750 0.468750
vt 0.625000 0.468750
vt 0.375000 0.500000
vt 0.406250 0.500000
vt 0.468750 0.500000
vt 0.531250 0.500000
vt 0.593750 0.500000
vt 0.625000 0.500000
vt 0.375000 0.750000
vt 0.406250 0.750000
vt 0.468750 0.750000
vt 0.531250 0.750000
vt 0.593750 0.750000
vt 0.625000 0.750000
vt 0.375000 0.781250
vt 0.406250 0.781250
vt 0.468750 0.781250
vt 0.531250 0.781250
vt 0.593750 0.781250
vt 0.625000 0.781250
vt 0.375000 0.843750
vt 0.406250 0.843750
vt 0.468750 0.843750
vt 0.531250 0.843750
vt 0.593750 0.843750
vt 0.625000 0.843750
vt 0.375000 0.906250
vt 0.406250 0.906250
vt 0.468750 0.906250
vt 0.531250 0.906250
vt 0.593750 0.906250
vt 0.625000 0.906250
vt 0.375000 0.968750
vt 0.406250 0.968750
vt 0.468750 0.968750
vt 0.531250 0.968750
vt 0.593750 0.968750
vt 0.625000 0.968750
vt 0.375000 1.000000
vt 0.406250 1.000000
vt 0.468750 1.000000
vt 0.531250 1.000000
vt 0.593750 1.000000
vt 0.625000 1.000000
vt 0.875000 0.000000
vt 0.843750 0.000000
vt 0.781250 0.000000
vt 0.718750 0.000000
vt 0.656250 0.000000
vt 0.875000 0.250000
vt 0.843750 0.250000
vt 0.781250 0.250000
vt 0.718750 0.250000
vt 0.656250 0.250000
vt 0.125000 0.000000
vt 0.156250 0.000000
vt 0.218750 0.000000
vt 0.281250 0.000000
vt 0.343750 0.000000
vt 0.125000 0.250000
vt 0.156250 0.250000
vt 0.218750 0.250000
vt 0.281250 0.250000
vt 0.343750 0.250000
vt 0.125000 0.207650
vt 0.375000 0.542350
vt 0.156250 0.207650
vt 0.218750 0.207650
vt 0.281250 0.207650
vt 0.343750 0.207650
vt 0.375000 0.207650
vt 0.406250 0.207650
vt 0.468750 0.207650
vt 0.531250 0.207650
vt 0.593750 0.207650
vt 0.625000 0.207650
vt 0.656250 0.207650
vt 0.718750 0.207650
vt 0.781250 0.207650
vt 0.843750 0.207650
vt 0.625000 0.542350
vt 0.875000 0.207650
vt 0.593750 0.542350
vt 0.531250 0.542350
vt 0.468750 0.542350
vt 0.406250 0.542350
vt 0.125000 0.111173
vt 0.375000 0.638828
vt 0.156250 0.111173
vt 0.218750 0.111173
vt 0.281250 0.111173
vt 0.343750 0.111173
vt 0.375000 0.111173
vt 0.406250 0.111173
vt 0.468750 0.111173
vt 0.531250 0.111173
vt 0.593750 0.111173
vt 0.625000 0.111173
vt 0.656250 0.111173
vt 0.718750 0.111173
vt 0.781250 0.111173
vt 0.843750 0.111173
vt 0.625000 0.638828
vt 0.875000 0.111173
vt 0.593750 0.638828
vt 0.531250 0.638828
vt 0.468750 0.638828
vt 0.406250 0.638828
vt 0.125000 0.111173
vt 0.156250 0.111173
vt 0.156250 0.207650
vt 0.125000 0.207650
vt 0.218750 0.207650
vt 0.218750 0.111173
vt 0.281250 0.207650
vt 0.281250 0.111173
vt 0.343750 0.207650
vt 0.343750 0.111173
vt 0.375000 0.111173
vt 0.375000 0.207650
vt 0.406250 0.111173
vt 0.406250 0.207650
vt 0.468750 0.207650
vt 0.468750 0.111173
vt 0.531250 0.207650
vt 0.531250 0.111173
vt 0.593750 0.207650
vt 0.593750 0.111173
vt 0.625000 0.111173
vt 0.625000 0.207650
vt 0.656250 0.111173
vt 0.656250 0.207650
vt 0.718750 0.207650
vt 0.718750 0.111173
vt 0.781250 0.207650
vt 0.781250 0.111173
vt 0.843750 0.207650
vt 0.843750 0.111173
vt 0.875000 0.111173
vt 0.875000 0.207650
vt 0.593750 0.542350
vt 0.625000 0.542350
vt 0.625000 0.638828
vt 0.593750 0.638828
vt 0.531250 0.542350
vt 0.531250 0.638828
vt 0.468750 0.542350
vt 0.468750 0.638828
vt 0.406250 0.542350
vt 0.406250 0.638828
vt 0.375000 0.542350
vt 0.375000 0.638828
vn 0.000000 0.000000 1.000000
vn 0.000000 0.000000 1.000000
vn 0.000000 0.000000 1.000000
vn 0.000000 0.000000 1.000000
vn 0.000000 0.000000 1.000000
vn 0.000000 0.000000 1.000000
vn 0.000000 0.000000 1.000000
vn 0.000000 0.000000 1.000000
vn 0.000000 0.000000 1.000000
vn 0.000000 0.000000 1.000000
vn 0.000000 0.000000 1.000000
vn 0.000000 0.000000 1.000000
vn 0.000000 1.000000 0.000000
vn 0.000000 1.000000 0.000000
vn 0.000000 1.000000 0.000000
vn 0.000000 1.000000 0.000000
vn 0.000000 1.000000 0.000000
vn -0.051356 0.980450 0.189950
vn 0.000000 1.000000 0.000000
vn 0.051356 0.980450 0.189950
vn 0.000000 1.000000 0.000000
vn 0.000000 1.000000 0.000000
vn 0.000000 1.000000 0.000000
vn 0.000000 1.000000 0.000000
vn -0.189950 0.980450 0.051356
vn 0.000000 1.000000 0.000000
vn -0.140254 0.980131 0.140254
vn 0.140254 0.980131 0.140254
vn 0.189950 0.980450 0.051356
vn 0.000000 1.000000 0.000000
vn -0.189950 0.980450 -0.051356
vn 0.000000 1.000000 0.000000
vn -0.140254 0.980131 -0.140254
vn 0.140254 0.980131 -0.140254
vn 0.189950 0.980450 -0.051356
vn 0.000000 1.000000 0.000000
vn 0.000000 1.000000 0.000000
vn 0.000000 1.000000 0.000000
vn -0.051356 0.980450 -0.189950
vn 0.051356 0.980450 -0.189950
vn 0.000000 1.000000 0.000000
vn 0.000000 1.000000 0.000000
vn 0.000000 1.000000 0.000000
vn 0.000000 1.000000 0.000000
vn 0.000000 1.000000 0.000000
vn 0.000000 1.000000 0.000000
vn 0.000000 1.000000 0.000000
vn 0.000000 1.000000 0.000000
vn 0.000000 0.000000 -1.000000
vn 0.000000 0.000000 -1.000000
vn 0.000000 0.000000 -1.000000
vn 0.000000 0.000000 -1.000000
vn 0.000000 0.000000 -1.000000
vn 0.000000 0.000000 -1.000000
vn 0.000000 0.000000 -1.000000
vn 0.000000 0.000000 -1.000000
vn 0.000000 0.000000 -1.000000
vn 0.000000 0.000000 -1.000000
vn 0.000000 0.000000 -1.000000
vn 0.000000 0.000000 -1.000000
vn 0.000000 -1.000000 0.000000
vn 0.000000 -1.000000 0.000000
vn 0.000000 -1.000000 0.000000
vn 0.000000 -1.000000 0.000000
vn 0.000000 -1.000000 0.000000
vn 0.000000 -1.000000 0.000000
vn 0.000000 -1.000000 0.000000
vn 0.000000 -1.000000 0.000000
vn 0.000000 -1.000000 0.000000
vn 0.000000 -1.000000 0.000000
vn 0.000000 -1.000000 0.000000
vn 0.000000 -1.000000 0.000000
vn 0.000000 -1.000000 0.000000
vn 0.000000 -1.000000 0.000000
vn 0.000000 -1.000000 0.000000
vn 0.000000 -1.000000 0.000000
vn 0.000000 -1.000000 0.000000
vn 0.000000 -1.000000 0.000000
vn 0.000000 -1.000000 0.000000
vn 0.000000 -1.000000 0.000000
vn 0.000000 -1.000000 0.000000
vn 0.000000 -1.000000 0.000000
vn 0.000000 -1.000000 0.000000
vn 0.000000 -1.000000 0.000000
vn 0.000000 -1.000000 0.000000
vn 0.000000 -1.000000 0.000000
vn 0.000000 -1.000000 0.000000
vn 0.000000 -1.000000 0.000000
vn 0.000000 -1.000000 0.000000
vn 0.000000 -1.000000 0.000000
vn 0.000000 -1.000000 0.000000
vn 0.000000 -1.000000 0.000000
vn 0.000000 -1.000000 0.000000
vn 0.000000 -1.000000 0.000000
vn 0.000000 -1.000000 0.000000
vn 0.000000 -1.000000 0.000000
vn 1.000000 0.000000 0.000000
vn 1.000000 0.000000 0.000000
vn 1.000000 0.000000 0.000000
vn 1.000000 0.000000 0.000000
vn 1.000000 0.000000 0.000000
vn 1.000000 0.000000 0.000000
vn 1.000000 0.000000 0.000000
vn 1.000000 0.000000 0.000000
vn 1.000000 0.000000 0.000000
vn 1.000000 0.000000 0.000000
vn 1.000000 0.000000 0.000000
vn 1.000000 0.000000 0.000000
vn -1.000000 0.000000 0.000000
vn -1.000000 0.000000 0.000000
vn -1.000000 0.000000 0.000000
vn -1.000000 0.000000 0.000000
vn -1.000000 0.000000 0.000000
vn -1.000000 0.000000 0.000000
vn -1.000000 0.000000 0.000000
vn -1.000000 0.000000 0.000000
vn -1.000000 0.000000 0.000000
vn -1.000000 0.000000 0.000000
vn -1.000000 0.000000 0.000000
vn -1.000000 0.000000 0.000000
vn -1.000000 0.000000 0.000000
vn -1.000000 0.000000 0.000000
vn -1.000000 0.000000 0.000000
vn -1.000000 0.000000 0.000000
vn -1.000000 0.000000 0.000000
vn -1.000000 0.000000 0.000000
vn -1.000000 0.000000 0.000000
vn -1.000000 0.000000 0.000000
vn -1.000000 0.000000 0.000000
vn -1.000000 0.000000 0.000000
vn -1.000000 0.000000 0.000000
vn -1.000000 0.000000 0.000000
vn 0.000000 0.000000 1.000000
vn 0.000000 0.000000 1.000000
vn 0.000000 0.000000 1.000000
vn 0.000000 0.000000 1.000000
vn 0.000000 0.000000 1.000000
vn 0.000000 0.000000 1.000000
vn 0.000000 0.000000 1.000000
vn 0.000000 0.000000 1.000000
vn 0.000000 0.000000 1.000000
vn 0.000000 0.000000 1.000000
vn 0.000000 0.000000 1.000000
vn 0.000000 0.000000 1.000000
vn 1.000000 0.000000 0.000000
vn 1.000000 0.000000 0.000000
vn 1.000000 0.000000 0.000000
vn 1.000000 0.000000 0.000000
vn 1.000000 0.000000 0.000000
vn 1.000000 0.000000 0.000000
vn 1.000000 0.000000 0.000000
vn 1.000000 0.000000 0.000000
vn 1.000000 0.000000 0.000000
vn 1.000000 0.000000 0.000000
vn 1.000000 0.000000 0.000000
vn 1.000000 0.000000 0.000000
vn 0.000000 0.000000 -1.000000
vn 0.000000 0.000000 -1.000000
vn 0.000000 0.000000 -1.000000
vn 0.000000 0.000000 -1.000000
vn 0.000000 0.000000 -1.000000
vn 0.000000 0.000000 -1.000000
vn 0.000000 0.000000 -1.000000
vn 0.000000 0.000000 -1.000000
vn 0.000000 0.000000 -1.000000
vn 0.000000 0.000000 -1.000000
vn 0.000000 0.000000 -1.000000
vn 0.000000 0.000000 -1.000000
vn -1.000000 0.000000 0.000000
vn -1.000000 0.000000 0.000000
vn -1.000000 0.000000 0.000000
vn -1.000000 0.000000 0.000000
vn -1.000000 0.000000 0.000000
vn -1.000000 0.000000 0.000000
vn -1.000000 0.000000 0.000000
vn -1.000000 0.000000 0.000000
vn -1.000000 0.000000 0.000000
vn -1.000000 0.000000 0.000000
vn -1.000000 0.000000 0.000000
vn -1.000000 0.000000 0.000000
vn 0.000000 0.000000 1.000000
vn 0.000000 0.000000 1.000000
vn 0.000000 0.000000 1.000000
vn 0.000000 0.000000 1.000000
vn 0.000000 0.000000 1.000000
vn 0.000000 0.000000 1.000000
vn 0.000000 0.000000 1.000000
vn 0.000000 0.000000 1.000000
vn 0.000000 0.000000 1.000000
vn 0.000000 0.000000 1.000000
vn 0.000000 0.000000 1.000000
vn 0.000000 0.000000 1.000000
vn 1.000000 0.000000 0.000000
vn 1.000000 0.000000 0.000000
vn 1.000000 0.000000 0.000000
vn 1.000000 0.000000 0.000000
vn 1.000000 0.000000 0.000000
vn 1.000000 0.000000 0.000000
vn 1.000000 0.000000 0.000000
vn 1.000000 0.000000 0.000000
vn 1.000000 0.000000 0.000000
vn 1.000000 0.000000 0.000000
vn 1.000000 0.000000 0.000000
vn 1.000000 0.000000 0.000000
vn 0.000000 0.000000 -1.000000
vn 0.000000 0.000000 -1.000000
vn 0.000000 0.000000 -1.000000
vn 0.000000 0.000000 -1.000000
vn 0.000000 0.000000 -1.000000
vn 0.000000 0.000000 -1.000000
vn 0.000000 0.000000 -1.000000
vn 0.000000 0.000000 -1.000000
vn 0.000000 0.000000 -1.000000
vn 0.000000 0.000000 -1.000000
vn 0.000000 0.000000 -1.000000
vn 0.000000 0.000000 -1.000000
vn -0.052959 0.997191 -0.052959
vn -0.105621 0.994406 0.000000
vn -0.105621 0.994406 0.000000
vn -0.052959 0.997191 -0.052959
vn -0.105621 -0.994406 0.000000
vn -0.052959 -0.997191 -0.052959
vn -0.052959 -0.997191 -0.052959
vn -0.105621 -0.994406 0.000000
vn -0.105621 -0.994406 0.000000
vn -0.105621 -0.994406 0.000000
vn -0.105621 0.994406 0.000000
vn -0.105621 0.994406 0.000000
vn -0.105621 -0.994406 0.000000
vn -0.105621 -0.994406 0.000000
vn -0.105621 0.994406 0.000000
vn -0.105621 0.994406 0.000000
vn -0.105621 -0.994406 0.000000
vn -0.105621 -0.994406 0.000000
vn -0.105621 0.994406 0.000000
vn -0.105621 0.994406 0.000000
vn -0.052959 0.997191 0.052959
vn -0.052959 0.997191 0.052959
vn -0.052959 -0.997191 0.052959
vn -0.052959 -0.997191 0.052959
vn 0.000000 0.994406 0.105621
vn 0.000000 0.994406 0.105621
vn 0.000000 -0.994406 0.105621
vn 0.000000 -0.994406 0.105621
vn 0.000000 -0.994406 0.105621
vn 0.000000 -0.994406 0.105622
vn 0.000000 0.994406 0.105621
vn 0.000000 0.994406 0.105621
vn 0.000000 -0.994406 0.105621
vn 0.000000 -0.994406 0.105621
vn 0.000000 0.994406 0.105621
vn 0.000000 0.994406 0.105621
vn 0.000000 -0.994406 0.105621
vn 0.000000 -0.994406 0.105621
vn 0.000000 0.994406 0.105621
vn 0.000000 0.994406 0.105621
vn 0.052959 0.997191 0.052959
vn 0.052959 0.997191 0.052959
vn 0.052959 -0.997191 0.052959
vn 0.052959 -0.997191 0.052959
vn 0.105621 0.994406 0.000000
vn 0.105621 0.994406 0.000000
vn 0.105621 -0.994406 0.000000
vn 0.105621 -0.994406 0.000000
vn 0.105621 -0.994406 0.000000
vn 0.105621 -0.994406 0.000000
vn 0.105621 0.994406 0.000000
vn 0.105621 0.994406 0.000000
vn 0.105621 -0.994406 0.000000
vn 0.105621 -0.994406 0.000000
vn 0.105621 0.994406 0.000000
vn 0.105621 0.994406 0.000000
vn 0.105621 -0.994406 0.000000
vn 0.105621 -0.994406 0.000000
vn 0.105621 0.994406 0.000000
vn 0.105621 0.994406 0.000000
vn 0.052959 0.997191 -0.052959
vn 0.052959 0.997191 -0.052959
vn 0.052959 -0.997191 -0.052959
vn 0.052959 -0.997191 -0.052959
vn 0.000000 -0.994406 -0.105621
vn 0.000000 -0.994406 -0.105621
vn 0.000000 0.994406 -0.105621
vn 0.000000 0.994406 -0.105621
vn 0.000000 -0.994406 -0.105621
vn 0.000000 -0.994406 -0.105622
vn 0.000000 0.994406 -0.105621
vn 0.000000 0.994406 -0.105621
vn 0.000000 -0.994406 -0.105621
vn 0.000000 -0.994406 -0.105621
vn 0.000000 0.994406 -0.105621
vn 0.000000 0.994406 -0.105621
vn 0.000000 -0.994406 -0.105621
vn 0.000000 -0.994406 -0.105621
vn 0.000000 0.994406 -0.105621
vn 0.000000 0.994406 -0.105621
s 1
g pCube3
usemtl initialShadingGroup
f 78/105/1 79/106/2 8/8/3 7/7/4
f 8/8/3 79/106/2 80/107/5 9/9/6
f 9/9/6 80/107/5 81/108/7 10/10/8
f 10/10/8 81/108/7 82/109/9 11/11/10
f 82/109/9 83/110/11 12/12/12 11/11/10
s 2
f 7/7/13 8/8/14 14/14/15 13/13/16
f 14/14/15 8/8/14 9/9/17 15/15/18
f 15/15/18 9/9/17 10/10/19 16/16/20
f 16/16/20 10/10/19 11/11/21 17/17/22
f 11/11/21 12/12/23 18/18/24 17/17/22
f 14/14/15 20/20/25 19/19/26 13/13/16
f 15/15/18 21/21/27 20/20/25
f 21/21/27 15/15/18 16/16/20 22/22/28
f 16/16/20 23/23/29 22/22/28
f 24/24/30 23/23/29 17/17/22 18/18/24
f 20/20/25 26/26/31 25/25/32 19/19/26
f 21/21/27 27/27/33 26/26/31 20/20/25
f 27/27/33 21/21/27 22/22/28 28/28/34
f 23/23/29 29/29/35 28/28/34 22/22/28
f 30/30/36 29/29/35 23/23/29 24/24/30
f 26/26/31 32/32/37 31/31/38 25/25/32
f 27/27/33 33/33/39 26/26/31
f 33/33/39 27/27/33 28/28/34 34/34/40
f 29/29/35 35/35/41 34/34/40
f 36/36/42 35/35/41 29/29/35 30/30/36
f 31/31/38 32/32/37 38/38/43 37/37/44
f 38/38/43 32/32/37 33/33/39 39/39/45
f 39/39/45 33/33/39 34/34/40 40/40/46
f 40/40/46 34/34/40 35/35/41 41/41/47
f 35/35/41 36/36/42 42/42/48 41/41/47
s 3
f 37/37/49 38/38/50 92/120/51 73/100/52
f 92/120/51 38/38/50 39/39/53 91/119/54
f 91/119/54 39/39/53 40/40/55 90/118/56
f 90/118/56 40/40/55 41/41/57 89/117/58
f 41/41/57 42/42/59 88/115/60 89/117/58
s 4
f 43/43/61 44/44/62 50/50/63 49/49/64
f 50/50/63 44/44/62 45/45/65 51/51/66
f 51/51/66 45/45/65 46/46/67 52/52/68
f 52/52/68 46/46/67 47/47/69 53/53/70
f 47/47/69 48/48/71 54/54/72 53/53/70
f 50/50/63 56/56/73 55/55/74 49/49/64
f 51/51/66 57/57/75 56/56/73 50/50/63
f 57/57/75 51/51/66 52/52/68 58/58/76
f 53/53/70 59/59/77 58/58/76 52/52/68
f 60/60/78 59/59/77 53/53/70 54/54/72
f 56/56/73 62/62/79 61/61/80 55/55/74
f 57/57/75 63/63/81 62/62/79 56/56/73
f 63/63/81 57/57/75 58/58/76 64/64/82
f 59/59/77 65/65/83 64/64/82 58/58/76
f 66/66/84 65/65/83 59/59/77 60/60/78
f 62/62/79 68/68/85 67/67/86 61/61/80
f 63/63/81 69/69/87 68/68/85 62/62/79
f 69/69/87 63/63/81 64/64/82 70/70/88
f 65/65/83 71/71/89 70/70/88 64/64/82
f 72/72/90 71/71/89 65/65/83 66/66/84
f 67/67/86 68/68/85 2/74/91 1/73/92
f 3/75/93 2/74/91 68/68/85 69/69/87
f 4/76/94 3/75/93 69/69/87 70/70/88
f 5/77/95 4/76/94 70/70/88 71/71/89
f 71/71/89 72/72/90 6/78/96 5/77/95
s 5
f 87/114/97 88/116/98 42/84/99 36/85/100
f 36/85/100 30/86/101 86/113/102 87/114/97
f 30/86/101 24/87/103 85/112/104 86/113/102
f 24/87/103 18/88/105 84/111/106 85/112/104
f 83/110/107 84/111/106 18/88/105 12/12/108
s 6
f 73/99/109 74/101/110 31/95/111 37/94/112
f 25/96/113 31/95/111 74/101/110 75/102/114
f 19/97/115 25/96/113 75/102/114 76/103/116
f 13/98/117 19/97/115 76/103/116 77/104/118
f 77/104/118 78/105/119 7/7/120 13/98/117
s 7
f 113/143/121 114/144/122 115/145/123 116/146/124
f 117/147/125 115/145/123 114/144/122 118/148/126
f 119/149/127 117/147/125 118/148/126 120/150/128
f 121/151/129 119/149/127 120/150/128 122/152/130
f 122/152/130 123/153/131 124/154/132 121/151/129
s 8
f 123/153/133 125/155/134 126/156/135 124/154/136
f 127/157/137 126/156/135 125/155/134 128/158/138
f 129/159/139 127/157/137 128/158/138 130/160/140
f 131/161/141 129/159/139 130/160/140 132/162/142
f 132/162/142 133/163/143 134/164/144 131/161/141
s 9
f 133/163/145 135/165/146 136/166/147 134/164/148
f 137/167/149 136/166/147 135/165/146 138/168/150
f 139/169/151 137/167/149 138/168/150 140/170/152
f 141/171/153 139/169/151 140/170/152 142/172/154
f 142/172/154 143/173/155 144/174/156 141/171/153
s 10
f 145/175/157 144/176/158 143/177/159 146/178/160
f 148/180/161 147/179/162 145/175/157 146/178/160
f 150/182/163 149/181/164 147/179/162 148/180/161
f 152/184/165 151/183/166 149/181/164 150/182/163
f 116/185/167 151/183/166 152/184/165 113/186/168
s 11
f 43/89/169 49/90/170 94/123/171 93/121/172
f 95/124/173 94/123/171 49/90/170 55/91/174
f 96/125/175 95/124/173 55/91/174 61/92/176
f 97/126/177 96/125/175 61/92/176 67/93/178
f 67/93/178 1/1/179 98/127/180 97/126/177
s 12
f 1/1/181 2/2/182 99/128/183 98/127/184
f 100/129/185 99/128/183 2/2/182 3/3/186
f 101/130/187 100/129/185 3/3/186 4/4/188
f 102/131/189 101/130/187 4/4/188 5/5/190
f 5/5/190 6/6/191 103/132/192 102/131/189
s 13
f 6/6/193 72/83/194 104/133/195 103/132/196
f 105/134/197 104/133/195 72/83/194 66/82/198
f 106/135/199 105/134/197 66/82/198 60/81/200
f 107/136/201 106/135/199 60/81/200 54/80/202
f 54/80/202 48/79/203 108/138/204 107/136/201
s 14
f 109/139/205 108/137/206 48/48/207 47/47/208
f 46/46/209 110/140/210 109/139/205 47/47/208
f 45/45/211 111/141/212 110/140/210 46/46/209
f 44/44/213 112/142/214 111/141/212 45/45/211
f 93/122/215 112/142/214 44/44/213 43/43/216
s 15
f 93/121/217 94/123/218 114/144/219 113/143/220
s 16
f 74/101/221 73/99/222 116/146/223 115/145/224
f 75/102/225 74/101/221 115/145/224 117/147/226
s 15
f 94/123/218 95/124/227 118/148/228 114/144/219
s 16
f 76/103/229 75/102/225 117/147/226 119/149/230
s 15
f 95/124/227 96/125/231 120/150/232 118/148/228
s 16
f 77/104/233 76/103/229 119/149/230 121/151/234
s 15
f 96/125/231 97/126/235 122/152/236 120/150/232
f 97/126/235 98/127/237 123/153/238 122/152/236
s 16
f 78/105/239 77/104/233 121/151/234 124/154/240
s 15
f 98/127/237 99/128/241 125/155/242 123/153/238
s 16
f 79/106/243 78/105/239 124/154/240 126/156/244
f 80/107/245 79/106/243 126/156/244 127/157/246
s 15
f 99/128/241 100/129/247 128/158/248 125/155/242
s 16
f 81/108/249 80/107/245 127/157/246 129/159/250
s 15
f 100/129/247 101/130/251 130/160/252 128/158/248
s 16
f 82/109/253 81/108/249 129/159/250 131/161/254
s 15
f 101/130/251 102/131/255 132/162/256 130/160/252
f 102/131/255 103/132/257 133/163/258 132/162/256
s 16
f 83/110/259 82/109/253 131/161/254 134/164/260
s 15
f 103/132/257 104/133/261 135/165/262 133/163/258
s 16
f 84/111/263 83/110/259 134/164/260 136/166/264
f 85/112/265 84/111/263 136/166/264 137/167/266
s 15
f 104/133/261 105/134/267 138/168/268 135/165/262
s 16
f 86/113/269 85/112/265 137/167/266 139/169/270
s 15
f 105/134/267 106/135/271 140/170/272 138/168/268
s 16
f 87/114/273 86/113/269 139/169/270 141/171/274
s 15
f 106/135/271 107/136/275 142/172/276 140/170/272
f 107/136/275 108/138/277 143/173/278 142/172/276
s 16
f 88/116/279 87/114/273 141/171/274 144/174/280
f 89/117/281 88/115/279 144/176/280 145/175/282
s 15
f 108/137/277 109/139/283 146/178/284 143/177/278
s 16
f 90/118/285 89/117/281 145/175/282 147/179/286
s 15
f 109/139/283 110/140/287 148/180/288 146/178/284
s 16
f 91/119/289 90/118/285 147/179/286 149/181/290
s 15
f 110/140/287 111/141/291 150/182/292 148/180/288
s 16
f 92/120/293 91/119/289 149/181/290 151/183/294
s 15
f 111/141/291 112/142/295 152/184/296 150/182/292
s 16
f 73/100/222 92/120/293 151/183/294 116/185/223
s 15
f 112/142/295 93/122/217 113/186/220 152/184/296
s 2
f 26/26/31 33/33/39 32/32/37
f 29/29/35 34/34/40 28/28/34
f 17/17/22 23/23/29 16/16/20
f 15/15/18 20/20/25 14/14/15
